<?xml version="1.0" encoding="utf-8"?>
<!-- Generator: Adobe Illustrator 26.0.1, SVG Export Plug-In . SVG Version: 6.00 Build 0)  -->
<svg version="1.1" xmlns="http://www.w3.org/2000/svg" xmlns:xlink="http://www.w3.org/1999/xlink" x="0px" y="0px"
	 viewBox="0 0 224.25 318.28" style="enable-background:new 0 0 224.25 318.28;" xml:space="preserve">
<style type="text/css">
	.st0{display:none;fill:#12100B;}
	.st1{display:none;}
	.st2{display:inline;fill:#00FF00;}
	.st3{display:none;fill:#00FF00;}
	.st4{fill:#12100B;}
	.st5{fill:#00FF00;}
</style>
<g id="Layer_2">
</g>
<g id="Layer_7">
	<path class="st0" d="M946.73-88.47c-0.02-4.76,0.23-9.71-0.6-14.43c-2.69-15.46-19.17-20.41-32.83-18.67
		c-3.97,0.51-7.58,1.66-10.72,3.38c-0.54-1-1.16-1.97-1.91-2.94c-5.21-6.79-13.36-9.98-21.67-10.83
		c-5.67-0.57-11.11,0.45-15.85,2.76c0.29-20.44,0.48-40.87,0.43-61.3c-0.02-6.54-0.21-13.11-2.92-19.19
		c-3.19-7.16-9.64-11.67-17.22-13.23c-8.82-1.82-18.49-1.74-26.56,2.59c-8.79,4.72-13.99,13.61-15.02,23.35
		c-0.84,7.86-0.81,15.87-1.06,23.76c-0.3,9.16-0.54,18.32-0.78,27.49c-1.9-11.14-3.88-22.26-6-33.35
		c-2.65-13.86-9.19-26.9-24.61-28.45c-14.1-1.41-29.18,5.07-33.51,19.32c-3.24,10.63-0.32,22.13,1.44,32.8
		c1.9,11.46,3.83,22.92,5.77,34.38c2.86,16.95,5.74,33.9,8.62,50.86c-6.37,1.62-11.66,5.17-15.86,10.99
		c-4.85,6.73-8.16,14.8-10.76,22.64c-6.27,18.91-4.16,36.98,5.21,54.53c7.96,14.92,19.84,27.94,30.7,40.8
		c6.33,7.49,12.73,14.93,19.19,22.31v87.22c0,4.05,3.44,7.5,7.5,7.5h122c4.03,0,7.54-3.44,7.5-7.5
		c-0.24-26.45-0.48-52.89-0.73-79.33c-0.02-2.61-0.04-5.22-0.07-7.83c15.51-12.11,28.87-29.62,29.35-49.87
		c0.32-13.52,0.38-27.04,0.52-40.56c0.18-17.47,0.32-34.93,0.41-52.39c0.02-0.33,0.04-0.65,0.05-0.99c0.01-0.37-0.01-0.72-0.04-1.06
		c0-0.85,0.01-1.71,0.01-2.56C946.74-73.67,946.77-81.07,946.73-88.47z M862.82-108.19c0.16-0.34,0.37-0.79,0.44-0.92
		c0.49-0.89,0.98-1.8,1.57-2.64c1.83-2.57,5.03-5.01,8.77-5.39c4.97-0.51,11.43,0.72,14.85,4.67c2.3,2.64,2.01,4.94,2.01,8.28v30.28
		c0,7.86,1.38,16.17-7.33,20.18c-7.19,3.31-20.07-0.8-21.11-9.27C862.28-78.06,862.57-93.13,862.82-108.19z M816.38-189.13
		c0.11-2.33,0.2-6.02,0.45-7.64c1.14-7.36,7.79-12.34,15.69-12.23c4.83,0.07,11.04,0.12,13.75,4.07c2.8,4.08,2.3,9.68,2.31,14.43
		c0.06,24.38-0.4,48.77-0.74,73.15c-0.04,2.45-0.53,35.18-0.74,48.06c-0.29-0.12-0.58-0.25-0.88-0.36
		c-4.98-1.81-10.22-1.53-15.42-1.53h-17.46C814.07-110.49,814.61-149.85,816.38-189.13z M750.11-169.81
		c-0.74-4.94-1.4-10.76,0.6-15.51c2.1-4.95,7.4-6.57,12.34-7.17c4.52-0.55,8.62-0.27,11.2,2.71c3.44,3.99,4.45,10.1,5.39,15.13
		c3.7,19.85,6.85,39.81,10.17,59.72c2.43,14.58,4.83,29.16,7.24,43.75h-5.26c-8.33,0-16.76-0.3-25.13-0.21
		C761.02-104.17,755.03-136.93,750.11-169.81z M931.22-3.73c-0.1,10.07-0.21,20.13-0.38,30.19c-0.14,8.98-1.32,15.52-6.28,23.82
		c-4.76,8-11.31,14.71-18.77,20.23c-3.75,2.78-4.43,5.5-4.39,9.63c0.08,8.89,0.17,17.78,0.25,26.67c0.16,18,0.33,36.01,0.49,54.01
		H795.21V83.16c0-3.87,0.33-6.79-2.21-10.17c-7.74-10.28-17.07-19.63-25.33-29.51c-12.64-15.12-27.13-31.05-30.92-51.02
		c-2.01-10.58,1.03-21.37,5.07-31.12c1.83-4.41,3.99-9.2,7.01-12.95c2.95-3.67,6.71-4.52,11.22-4.61
		c14.57-0.3,29.18,0.04,43.76,0.04h24.17c5.56,0,12.01-1.06,16.7,2.55c8.97,6.89,6.21,20.66-1.07,27.56
		c-6.27,5.96-14.32,9.11-22.8,10.6c-3.08,0.54-31.27,1.29-40.52,1.29h-16.08c-9.65,0-9.67,15,0,15h33.19
		c3.79,0,7.65-0.03,11.51-0.19h0.04c0.06,0.02,0.1,0.05,0.14,0.07c0.45,0.21,0.9,0.41,1.34,0.62c2.7,1.27,5.33,2.67,7.9,4.18
		c6.64,3.91,13.27,8.71,17.76,15.08c5.57,7.89,5.97,17.67,3.34,26.76c-1.1,3.78-2.67,7.33-4.65,10.73
		c-0.74,1.27-1.55,2.47-2.36,3.69c-0.19,0.29-0.31,0.47-0.4,0.6c-0.01,0.02-0.03,0.04-0.04,0.06c-0.03,0.05-0.06,0.09-0.08,0.12
		c0,0.01,0,0.01,0,0.01c-0.02,0.02-0.03,0.04-0.03,0.04c-2.07,3.08-2.28,6.99,0.54,9.86c2.6,2.67,8.07,3.15,10.6,0
		c12.57-15.55,18.07-39.61,7.29-57.51c-4.26-7.07-10.37-13.05-17.28-17.97c4.32-1.36,8.49-3.18,12.41-5.66
		c11.23-7.11,19.5-18.65,19.89-31.61c3.71,1.28,7.74,2.03,11.85,2.28c8.3,0.51,15.92-3.1,21.16-8.91c3.17,3.02,7.12,5.28,11.56,6.44
		c7.22,1.89,15.09,1.53,21.69-1.06C931.49-28.94,931.36-16.33,931.22-3.73z M931.75-80.06c0,6-0.02,12-0.05,18
		c-0.18,2.46-1.13,4.68-4,6.17c-4.34,2.25-11.1,2.23-15.6,0.42c-3.23-1.31-5.73-4.79-6.19-6.34c-0.13-0.45-0.45-2.82-0.45-3.38
		v-33.53c0.47-4.24,3.05-6.85,8.46-7.87c5.76-1.09,15.9-0.94,17.5,6.35C932.8-93.97,931.75-86.42,931.75-80.06z"/>
	<g class="st1">
		<path class="st2" d="M931.75-80.06c0,6-0.02,12-0.05,18c-0.18,2.46-1.13,4.68-4,6.17c-4.34,2.25-11.1,2.23-15.6,0.42
			c-3.23-1.31-5.73-4.79-6.19-6.34c-0.13-0.45-0.45-2.82-0.45-3.38v-33.53c0.47-4.24,3.05-6.85,8.46-7.87
			c5.76-1.09,15.9-0.94,17.5,6.35C932.8-93.97,931.75-86.42,931.75-80.06z"/>
		<path class="st2" d="M883.13-53.73c-7.19,3.31-20.07-0.8-21.11-9.27c0.26-15.06,0.55-30.13,0.8-45.19
			c0.16-0.34,0.37-0.79,0.44-0.92c0.49-0.89,0.98-1.8,1.57-2.64c1.83-2.57,5.03-5.01,8.77-5.39c4.97-0.51,11.43,0.72,14.85,4.67
			c2.3,2.64,2.01,4.94,2.01,8.28v30.28C890.46-66.05,891.84-57.74,883.13-53.73z"/>
		<path class="st2" d="M931.58-41.55c-0.09,12.61-0.22,25.22-0.36,37.82c-0.1,10.07-0.21,20.13-0.38,30.19
			c-0.14,8.98-1.32,15.52-6.28,23.82c-4.76,8-11.31,14.71-18.77,20.23c-3.75,2.78-4.43,5.5-4.39,9.63
			c0.08,8.89,0.17,17.78,0.25,26.67c0.16,18,0.33,36.01,0.49,54.01H795.21V83.16c0-3.87,0.33-6.79-2.21-10.17
			c-7.74-10.28-17.07-19.63-25.33-29.51c-12.64-15.12-27.13-31.05-30.92-51.02c-2.01-10.58,1.03-21.37,5.07-31.12
			c1.83-4.41,3.99-9.2,7.01-12.95c2.95-3.67,6.71-4.52,11.22-4.61c14.57-0.3,29.18,0.04,43.76,0.04h24.17
			c5.56,0,12.01-1.06,16.7,2.55c8.97,6.89,6.21,20.66-1.07,27.56c-6.27,5.96-14.32,9.11-22.8,10.6c-3.08,0.54-31.27,1.29-40.52,1.29
			h-16.08c-9.65,0-9.67,15,0,15h33.19c3.79,0,7.65-0.03,11.51-0.19h0.04c0.06,0.02,0.1,0.05,0.14,0.07c0.45,0.21,0.9,0.41,1.34,0.62
			c2.7,1.27,5.33,2.67,7.9,4.18c6.64,3.91,13.27,8.71,17.76,15.08c5.57,7.89,5.97,17.67,3.34,26.76c-1.1,3.78-2.67,7.33-4.65,10.73
			c-0.74,1.27-1.55,2.47-2.36,3.69c-0.19,0.29-0.31,0.47-0.4,0.6c-0.01,0.02-0.03,0.04-0.04,0.06c-0.03,0.05-0.06,0.09-0.08,0.12
			c0,0.01,0,0.01,0,0.01c-0.02,0.02-0.03,0.04-0.03,0.04c-2.07,3.08-2.28,6.99,0.54,9.86c2.6,2.67,8.07,3.15,10.6,0
			c12.57-15.55,18.07-39.61,7.29-57.51c-4.26-7.07-10.37-13.05-17.28-17.97c4.32-1.36,8.49-3.18,12.41-5.66
			c11.23-7.11,19.5-18.65,19.89-31.61c3.71,1.28,7.74,2.03,11.85,2.28c8.3,0.51,15.92-3.1,21.16-8.91
			c3.17,3.02,7.12,5.28,11.56,6.44C917.11-38.6,924.98-38.96,931.58-41.55z"/>
		<path class="st2" d="M848.58-190.5c0.06,24.38-0.4,48.77-0.74,73.15c-0.04,2.45-0.53,35.18-0.74,48.06
			c-0.29-0.12-0.58-0.25-0.88-0.36c-4.98-1.81-10.22-1.53-15.42-1.53h-17.46c0.73-39.31,1.27-78.67,3.04-117.95
			c0.11-2.33,0.2-6.02,0.45-7.64c1.14-7.36,7.79-12.34,15.69-12.23c4.83,0.07,11.04,0.12,13.75,4.07
			C849.07-200.85,848.57-195.25,848.58-190.5z"/>
		<path class="st2" d="M797.05-71.18h-5.26c-8.33,0-16.76-0.3-25.13-0.21c-5.64-32.78-11.63-65.54-16.55-98.42
			c-0.74-4.94-1.4-10.76,0.6-15.51c2.1-4.95,7.4-6.57,12.34-7.17c4.52-0.55,8.62-0.27,11.2,2.71c3.44,3.99,4.45,10.1,5.39,15.13
			c3.7,19.85,6.85,39.81,10.17,59.72C792.24-100.35,794.64-85.77,797.05-71.18z"/>
	</g>
	<path class="st0" d="M259.68,7.96c-0.03-12.9-4.27-25.78-18.47-28.48c-6.44-1.22-12.66-0.44-17.96,1.95c0-3.25-0.01-6.5-0.07-9.74
		c-0.14-7.18-1.54-14.69-5.62-20.74c-5.79-8.61-15.92-12.67-26.14-12.14c-6.56,0.34-12.42,2.77-17.24,6.59
		c-1.89-9.51-6.05-18.04-15.07-23.13c-6.28-3.53-14.32-4.81-21.4-3.54c-8.2,1.48-14.45,7.85-18.07,15.05
		c-1.08,2.14-2.01,4.36-2.84,6.64c-3.66-3.93-8.43-6.77-14.37-7.84c-7-1.26-14.37-1.26-20.94,1.79
		c-7.42,3.44-12.29,10.33-15.11,17.8c-3.76,9.96-3.2,20.73-3.2,31.19v112.3c-3.33-2.52-6.92-4.67-10.93-6.23
		c-21.24-8.25-49.1,7.67-52.06,30.56c-1.22,9.44,3.73,15.13,9.94,21.1c5.21,4.99,10.35,10.06,15.49,15.13
		c14.19,13.98,28.31,28.03,42.43,42.09c8.55,8.52,17.09,17.05,25.63,25.58v85.39c0,4.05,3.44,7.5,7.5,7.5h121.5
		c4.07,0,7.48-3.44,7.5-7.5c0.14-26.41,0.29-52.82,0.44-79.23c0.01-2.46,0.02-4.91,0.04-7.37c9.55-7.26,17-18.02,22.27-28.5
		c4.32-8.58,6.75-17.1,6.75-26.69v-48.48C259.68,81.99,259.77,44.98,259.68,7.96z M243.87,176.57c-2.25,8.56-7.02,16.61-12.29,23.64
		c-2.45,3.26-5.2,6.35-8.22,9.08c-3.28,2.96-7.32,4.45-7.68,9.5c-0.51,7.07-0.08,14.33-0.12,21.41
		c-0.11,20.53-0.23,41.05-0.34,61.58H108.68v-51c0-9.42,0.19-18.86,0-28.29c-0.12-5.76-3.63-8.45-7.41-12.22
		c-17.42-17.4-34.86-34.79-52.36-52.12c-8.26-8.19-16.53-16.37-24.87-24.48c-2.26-2.19-4.53-4.36-6.81-6.52
		c-4.8-4.53-0.68-11.53,2.98-15.72c3.82-4.37,9.8-7.58,15.13-8.87c9.63-2.34,18.02,3.54,24.54,10.02c1.66,1.66,5.43,5.45,5.68,5.66
		c10.38,10.34,20.8,20.65,31.82,30.34c2.64,2.33,5.83,2.71,8.96,1.23c0.83-0.29,1.64-0.61,2.48-0.87c3.33-1.04,5.77-1.48,8.75-1.62
		c10.14-0.47,19.22,3.61,26.32,10.79c8.21,8.3,14.18,19.82,11.03,31.66c-0.93,3.51-2.46,6.48-4.44,9.57
		c-0.19,0.29-0.39,0.57-0.59,0.85c-0.1,0.14-0.42,0.56-0.55,0.71c-0.31,0.37-0.63,0.73-0.96,1.07c-6.79,6.89,3.81,17.5,10.6,10.61
		c5.21-5.28,8.99-12.7,10.67-19.86c3.81-16.32-2.91-32.11-14.01-44.02c-12.97-13.93-33.37-20.18-51.42-14.09
		c-4.73-4.27-9.36-8.65-13.96-13.06c-4.07-3.9-8.09-7.85-12.08-11.83V-25.71c0-9.42,1.1-26.06,13.4-27.48
		c4.26-0.5,8.99,0.25,11.44,1.52c1.77,0.91,8.71,3.95,8.71,20.8c-0.07,2.24-0.05,24.18-0.05,31.23v73.92c0,9.65,15,9.67,15,0V5.41
		c0-11.36,0.45-22.93,0.02-34.8c0.2-8.27,0.85-15.92,3.16-24.03c4.11-14.4,12.73-13.47,15.76-13.15c-0.33,0,1.94,0.34,2.43,0.47
		c2.21,0.57,2.13,0.53,3.48,1.33c5.33,3.12,7.94,10.45,8.76,17.85c0.96,8.59,0.39,17.52,0.39,26.16v94.04c0,9.65,15,9.67,15,0
		v-97.75c0-16.42,6.3-20.98,15.74-21.72c7-0.55,13.04,2.53,15.22,8.51c1.57,4.32,1.53,6.75,1.54,11.43c0.01,8.98,0,60.89,0,74.03
		v26.5c0,9.65,15,9.67,15,0V2.09c0-5.98,7.51-9.12,14.04-8.15c6.67,1,7.42,6.39,7.46,12.83c0.05,7.72,0,15.44,0,23.16V153.9
		C244.68,161.15,245.73,169.48,243.87,176.57z"/>
	<path class="st3" d="M243.87,176.57c-2.25,8.56-7.02,16.61-12.29,23.64c-2.45,3.26-5.2,6.35-8.22,9.08
		c-3.28,2.96-7.32,4.45-7.68,9.5c-0.51,7.07-0.08,14.33-0.12,21.41c-0.11,20.53-0.23,41.05-0.34,61.58H108.68v-51
		c0-9.42,0.19-18.86,0-28.29c-0.12-5.76-3.63-8.45-7.41-12.22c-17.42-17.4-34.86-34.79-52.36-52.12
		c-8.26-8.19-16.53-16.37-24.87-24.48c-2.26-2.19-4.53-4.36-6.81-6.52c-4.8-4.53-0.68-11.53,2.98-15.72
		c3.82-4.37,9.8-7.58,15.13-8.87c9.63-2.34,18.02,3.54,24.54,10.02c1.66,1.66,5.43,5.45,5.68,5.66
		c10.38,10.34,20.8,20.65,31.82,30.34c2.64,2.33,5.83,2.71,8.96,1.23c0.83-0.29,1.64-0.61,2.48-0.87c3.33-1.04,5.77-1.48,8.75-1.62
		c10.14-0.47,19.22,3.61,26.32,10.79c8.21,8.3,14.18,19.82,11.03,31.66c-0.93,3.51-2.46,6.48-4.44,9.57
		c-0.19,0.29-0.39,0.57-0.59,0.85c-0.1,0.14-0.42,0.56-0.55,0.71c-0.31,0.37-0.63,0.73-0.96,1.07c-6.79,6.89,3.81,17.5,10.6,10.61
		c5.21-5.28,8.99-12.7,10.67-19.86c3.81-16.32-2.91-32.11-14.01-44.02c-12.97-13.93-33.37-20.18-51.42-14.09
		c-4.73-4.27-9.36-8.65-13.96-13.06c-4.07-3.9-8.09-7.85-12.08-11.83V-25.71c0-9.42,1.1-26.06,13.4-27.48
		c4.26-0.5,8.99,0.25,11.44,1.52c1.77,0.91,8.71,3.95,8.71,20.8c-0.07,2.24-0.05,24.18-0.05,31.23v73.92c0,9.65,15,9.67,15,0V5.41
		c0-11.36,0.45-22.93,0.02-34.8c0.2-8.27,0.85-15.92,3.16-24.03c4.11-14.4,12.73-13.47,15.76-13.15c-0.33,0,1.94,0.34,2.43,0.47
		c2.21,0.57,2.13,0.53,3.48,1.33c5.33,3.12,7.94,10.45,8.76,17.85c0.96,8.59,0.39,17.52,0.39,26.16v94.04c0,9.65,15,9.67,15,0
		v-97.75c0-16.42,6.3-20.98,15.74-21.72c7-0.55,13.04,2.53,15.22,8.51c1.57,4.32,1.53,6.75,1.54,11.43c0.01,8.98,0,60.89,0,74.03
		v26.5c0,9.65,15,9.67,15,0V2.09c0-5.98,7.51-9.12,14.04-8.15c6.67,1,7.42,6.39,7.46,12.83c0.05,7.72,0,15.44,0,23.16V153.9
		C244.68,161.15,245.73,169.48,243.87,176.57z"/>
	<path class="st4" d="M224.2,127.41V51.18c0-8.3-0.05-17.51-5.06-24.57c-6.81-9.62-22.14-11.78-32.71-7.94
		c-2.06,0.74-3.86,1.72-5.46,2.87c-0.18-0.3-0.36-0.6-0.56-0.89c-4.15-6.11-10.55-10.19-17.69-11.96
		c-9.08-2.25-18.26-1.43-25.89,4.32c-1.08,0.81-2.12,1.7-3.11,2.64c-2.23-4.12-5.31-7.75-9.41-10.53
		c-10.36-7.02-26.4-6.86-36.39,0.69c-2.84,2.14-5.18,4.75-7.07,7.64c-1.52-1.46-3.31-2.79-5.41-3.93
		c-10.2-5.57-24.74-6.6-34.29,0.65c-10,7.59-12.62,19.46-12.62,31.33V70C14.58,74.34,6.98,89.75,3.36,103.08
		c-3.85,14.2-5.03,29.57-0.11,43.62c6.61,18.87,18.98,34.88,31.6,50.1c7.07,8.54,14.41,16.88,22.01,24.94v88.04
		c0,4.05,3.44,7.5,7.5,7.5h120.5c4.11,0,7.44-3.44,7.5-7.5c0.44-27.07,0.88-54.13,1.32-81.2c0.04-2.55,0.08-5.1,0.12-7.65
		c16.45-11.93,30.21-31.82,30.4-52.44C224.32,154.8,224.2,141.1,224.2,127.41z M145.43,25.17c3.82-2.96,8.21-3.16,12.78-2.13
		c3.92,0.88,7.66,2.63,9.86,6.12c3.48,5.52,2.13,13.45,2.13,19.62v18.64c0,4.43,0.59,9.01-1.4,13.1c-4.11,8.44-12.57,8.64-20.81,7.8
		c-0.36-0.03-0.47-0.03-0.49-0.02c-0.07-0.03-0.26-0.09-0.71-0.21c-0.58-0.15-2.44-0.73-2.14-0.6c-0.87-0.37-1.77-0.86-2.91-2.34
		c-2.17-2.8-2.88-8.06-3.11-12.66c0.16-12.14,0.36-24.31-0.08-36.4C138.82,32.09,142.23,27.66,145.43,25.17z M89.53,42.88
		c0-18.02,2.49-24.04,10.87-26.94c11.65-4.03,21.03,3.58,22.77,14.79c0.21,1.33,0.36,23.67,0.36,31.01v8.2
		c-3.69-1.27-7.65-1.64-11.86-1.7c-7.38-0.1-14.76-0.25-22.14-0.38V42.88z M43.53,43.22c0-9.07,1-22.93,13.07-23.1
		c4.55-0.07,9.9,0.78,13.52,3.76c4.59,3.78,4.41,10.15,4.41,15.52v28.27c-0.92-0.01-1.84-0.03-2.77-0.03
		c-9.32-0.05-18.83-0.28-28.23,0.31V43.22z M209.2,166.69c0,12.15-5.95,23.82-14.02,32.92c-2.68,3.02-5.61,5.89-8.85,8.32
		c-3.52,2.65-7.12,4.22-7.47,9.14c-0.13,1.83-0.06,3.69-0.09,5.51c-0.15,9.5-0.3,18.99-0.46,28.48
		c-0.27,17.07-0.55,34.15-0.83,51.22H71.86v-80.07c0-3.58-0.01-6.21-2.64-9.2c-10.55-11.99-21.51-23.51-31.3-36.18
		C26.1,161.54,13.4,143.24,15.09,123c0.7-8.37,2.38-17.36,5.97-25.2c1.8-3.92,4.04-7.95,7.31-10.85c1.32-1.17,2.73-2.1,4.41-2.66
		c0.68-0.22,1.37-0.33,2.07-0.48c0.25-0.05,0.44-0.09,0.57-0.12c0.05,0,0.19-0.01,0.46-0.04c16.97-1.81,34.32-1.11,51.35-0.85
		c7.7,0.12,15.4,0.3,23.11,0.42c2.58,0.04,5.58-0.32,8.03,0.57c4.01,1.47,6.25,5.83,7.39,9.68c3.13,10.59-1.63,21.89-10.24,28.55
		c-7.02,5.44-16.67,3.76-25.01,3.76H42.36c-9.65,0-9.66,15,0,15h39.52c11.4,5.41,23.07,13.66,29.88,24.26
		c5.58,8.68,6.9,19.51,3.72,29.33c-1.7,5.23-3.93,8.74-7.25,11.6c-7.33,6.32,3.32,16.89,10.6,10.61
		c15.37-13.26,16.73-39.15,7.68-56.07c-4.03-7.53-10.06-14.28-17-20c1.53-0.21,3.02-0.52,4.47-0.98
		c15.08-4.79,27.22-21.31,27.84-37.23c0.21,0.06,0.42,0.12,0.63,0.18c11.91,2.95,26.06,1.3,34.63-7.88
		c4.18,5.22,10.31,8.69,18.39,9.14c4.98,0.28,9.65-0.47,13.73-2.14V166.69z M209.2,59.98v18.31c-0.05,0.32-0.08,0.65-0.09,0.99
		c-0.18,7.79-6.42,10.09-13.64,9.46c-8.09-0.71-10.08-8.19-10.11-15.21v-0.06c-0.05-8.28-2.46-34.48,6.25-40.25
		c4.03-2.66,11.89-1.49,14.64,1.22C211.05,39.16,209.2,52.63,209.2,59.98z"/>
	<g>
		<path class="st5" d="M209.2,59.98v18.31c-0.05,0.32-0.08,0.65-0.09,0.99c-0.18,7.79-6.42,10.09-13.64,9.46
			c-8.09-0.71-10.08-8.19-10.11-15.21v-0.06c-0.05-8.28-2.46-34.48,6.25-40.25c4.03-2.66,11.89-1.49,14.64,1.22
			C211.05,39.16,209.2,52.63,209.2,59.98z"/>
		<path class="st5" d="M170.2,67.42c0,4.43,0.59,9.01-1.4,13.1c-4.11,8.44-12.57,8.64-20.81,7.8c-0.36-0.03-0.47-0.03-0.49-0.02
			c-0.07-0.03-0.26-0.09-0.71-0.21c-0.58-0.15-2.44-0.73-2.14-0.6c-0.87-0.37-1.77-0.86-2.91-2.34c-2.17-2.8-2.88-8.06-3.11-12.66
			c0.16-12.14,0.36-24.31-0.08-36.4c0.27-4,3.68-8.43,6.88-10.92c3.82-2.96,8.21-3.16,12.78-2.13c3.92,0.88,7.66,2.63,9.86,6.12
			c3.48,5.52,2.13,13.45,2.13,19.62V67.42z"/>
		<path class="st5" d="M123.53,61.74v8.2c-3.69-1.27-7.65-1.64-11.86-1.7c-7.38-0.1-14.76-0.25-22.14-0.38V42.88
			c0-18.02,2.49-24.04,10.87-26.94c11.65-4.03,21.03,3.58,22.77,14.79C123.38,32.06,123.53,54.4,123.53,61.74z"/>
		<path class="st5" d="M74.53,39.4v28.27c-0.92-0.01-1.84-0.03-2.77-0.03c-9.32-0.05-18.83-0.28-28.23,0.31V43.22
			c0-9.07,1-22.93,13.07-23.1c4.55-0.07,9.9,0.78,13.52,3.76C74.71,27.66,74.53,34.03,74.53,39.4z"/>
		<path class="st5" d="M209.2,101.6v65.09c0,12.15-5.95,23.82-14.02,32.92c-2.68,3.02-5.61,5.89-8.85,8.32
			c-3.52,2.65-7.12,4.22-7.47,9.14c-0.13,1.83-0.06,3.69-0.09,5.51c-0.15,9.5-0.3,18.99-0.46,28.48
			c-0.27,17.07-0.55,34.15-0.83,51.22H71.86v-80.07c0-3.58-0.01-6.21-2.64-9.2c-10.55-11.99-21.51-23.51-31.3-36.18
			C26.1,161.54,13.4,143.24,15.09,123c0.7-8.37,2.38-17.36,5.97-25.2c1.8-3.92,4.04-7.95,7.31-10.85c1.32-1.17,2.73-2.1,4.41-2.66
			c0.68-0.22,1.37-0.33,2.07-0.48c0.25-0.05,0.44-0.09,0.57-0.12c0.05,0,0.19-0.01,0.46-0.04c16.97-1.81,34.32-1.11,51.35-0.85
			c7.7,0.12,15.4,0.3,23.11,0.42c2.58,0.04,5.58-0.32,8.03,0.57c4.01,1.47,6.25,5.83,7.39,9.68c3.13,10.59-1.63,21.89-10.24,28.55
			c-7.02,5.44-16.67,3.76-25.01,3.76H42.36c-9.65,0-9.66,15,0,15h39.52c11.4,5.41,23.07,13.66,29.88,24.26
			c5.58,8.68,6.9,19.51,3.72,29.33c-1.7,5.23-3.93,8.74-7.25,11.6c-7.33,6.32,3.32,16.89,10.6,10.61
			c15.37-13.26,16.73-39.15,7.68-56.07c-4.03-7.53-10.06-14.28-17-20c1.53-0.21,3.02-0.52,4.47-0.98
			c15.08-4.79,27.22-21.31,27.84-37.23c0.21,0.06,0.42,0.12,0.63,0.18c11.91,2.95,26.06,1.3,34.63-7.88
			c4.18,5.22,10.31,8.69,18.39,9.14C200.45,104.02,205.12,103.27,209.2,101.6z"/>
	</g>
</g>
</svg>
